<svg version="1.1" viewBox="0 0 2048 1902" width="1280" height="1280" xmlns="http://www.w3.org/2000/svg">
	<path transform="translate(1033,21)" d="m0 0h31l36 2 36 4 30 5 31 7 32 9 35 12 27 11 28 13 25 13 27 16 24 16 14 10 17 13 11 9 14 12 12 11 10 9 20 20 7 8 10 11 9 11 13 16 14 19 16 24 13 21 12 22 12 23 13 29 11 29 12 37 9 36 6 31 5 37 2 23 1 22v39l-1 23-4 38-6 38-8 35-10 34-9 26-11 27-9 20-16 32-14 24-14 22-14 20-10 13-11 14-2 4 5 2 18 13 16 11 63 44 43 30 17 12 23 16 63 44 40 28 4 1 20-6 16-3 11-1h19l18 2 17 4 17 6 16 8 12 7 14 11 13 12 9 11 9 12 9 16 8 20 5 18 2 13 1 13v12l-2 21-5 21-7 18-10 19-10 14-10 11-1 2h-2v2l-8 7-14 11-19 11-19 8-18 5-18 3h-34l-22-4-21-7-17-8-16-10-14-12-14-14-10-13-9-15-8-17-6-18-4-22-1-13v-11l1-16-4-2-16-11-23-16-103-72-83-58-43-30-40-28-4 2-20 13-20 12-22 12-15 8-24 11-27 11-41 14-38 10-35 7-23 4v361l14 10 14 12 9 9 13 17 9 16 7 15 5 15 4 19 1 8v32l-4 23-7 21-9 19-10 15-9 11-8 9-8 7-10 8-16 10-21 10-20 6-17 3-11 1h-20l-22-3-21-6-16-7-15-8-16-12-12-11-7-7-13-17-9-16-7-15-6-20-3-16-1-8v-26l3-20 5-19 9-21 10-17 11-14 12-13 11-9 14-10 4-3v-359l-9-2-33-6-34-8-33-10-31-11-28-12-25-12-23-12-25-15-29-19-5 1-11 8-57 38-16 11-83 56-12 8-31 21-43 29-24 16-28 19-40 27-12 8-3 25-5 21-7 19-9 17-11 16-12 13-10 10-15 11-17 10-19 8-18 5-19 3h-33l-18-3-17-5-15-6-17-9-14-10-12-11-12-12-11-15-10-17-8-20-5-19-3-22v-19l2-17 5-21 7-19 8-15 8-12 8-10 11-12 10-9 17-12 19-10 16-6 21-5 18-2h19l17 2 21 5 21 8 8 4 5-2 126-85 24-16 16-11 24-16 31-21 83-56 14-9-4-7-10-12-14-20-12-18-14-23-13-24-12-24-12-28-11-30-9-28-10-40-5-26-5-35-3-37v-65l3-36 5-35 7-34 7-28 10-32 14-37 12-26 8-17 12-22 10-17 14-22 13-18 12-16 11-14 11-13 10-11 7-8 31-31 8-7 14-12 16-13 19-14 23-16 20-12 17-10 23-12 27-13 27-11 34-12 28-8 34-8 34-6 36-4zm1 159-31 2-30 4-34 7-28 8-28 10-30 13-25 13-25 15-17 12-12 9-10 8-11 9-13 12-2 1v2l-4 2-14 14-7 8-9 10-11 14-13 17-14 21-9 15-10 18-14 29-10 26-8 24-9 36-5 28-3 26-1 15v48l3 32 4 26 7 31 7 24 8 23 11 26 11 23 13 23 20 30 13 17 9 11 9 10 7 8 25 25 11 9 9 8 13 10 18 13 22 14 22 12 16 8 17 8 29 11 29 9 30 7 31 5 36 3h44l33-3 26-4 28-6 27-8 26-9 26-11 26-13 27-16 16-11 11-8 18-14 10-9 8-7 10-9 14-14 7-8 9-10 11-14 10-13 18-27 12-21 12-23 11-25 12-34 9-34 6-31 3-26 2-35v-17l-2-34-4-31-7-34-8-28-9-26-11-26-14-28-16-27-13-19-9-12-13-16-13-15-16-17-12-11-10-9-11-9-17-13-20-14-20-12-18-10-22-11-27-11-36-12-28-7-27-5-24-3-37-2zm-866 1138-14 3-13 7-9 8-7 11-4 10-2 11 1 14 4 12 6 10 10 10 10 6 13 4h19l12-4 9-5 10-9 7-10 4-11 1-5v-18l-4-13-7-11-4-5-11-8-11-5-12-2zm1695 0-14 3-13 7-11 11-7 12-3 11v19l4 13 7 11 8 8 9 6 11 4 4 1h19l13-4 11-7 9-9 7-12 3-11 1-11-2-13-5-12-8-11-10-8-13-6-11-2zm-827 364-13 4-11 7-10 10-8 16-2 11v11l4 15 7 12 8 8 11 7 12 4 6 1h11l12-3 12-6 10-9 7-9 5-13 1-6v-15l-3-12-6-11-9-10-11-7-10-4-5-1z" fill="#46EEAA" />
	<path transform="translate(1e3 246)" d="m0 0h78l26 4 27 6 24 7 27 10 25 12 25 13 22 15 12 9 11 9 14 12 27 27 7 8 14 18 12 18 13 21 15 29 8 18 9 25 8 27 5 22 4 27 2 19 1 16v17l-1 26-4 33-4 22-6 24-12 36-13 29-11 22-11 18-14 20-11 14-9 11-14 15-19 19-11 9-14 11-14 10-23 14-16 9-24 11-26 10-31 9-29 6-40 5h-33l-31-3-29-5-24-6-23-7-25-10-26-12-14-8-24-16-12-9-16-13-12-11-27-27-7-8-12-15-15-22-8-13-10-18-14-29-11-29-8-27-6-27-4-26-2-21v-45l3-31 5-29 7-28 12-36 11-25 8-16 10-18 18-27 13-17 8-10 16-17 14-14 11-9 13-11 19-14 19-12 16-9 31-15 30-11 30-8 25-5zm42 147-3 9-11 90-4 33v14h31l4-1v-12l-8-67-6-48-2-18zm135 92-14 11-11 9-16 13-28 22-10 9 3 5 14 14 7-6 21-28 16-21 13-17 7-9v-2zm-273 9 2 5 13 17 12 16 13 17 21 28 4-1 11-12 5-4-2-4-11-9-32-26-14-11-11-9-10-7zm130 61-16 4-16 8-9 7-5 4-8 10-10 19-4 16-1 14 3 19 6 16 7 11 9 10 9 8 16 9 13 4 7 1h17l17-4 16-8 14-11 11-14 7-15 4-16v-23l-3-14-5-12-6-10-8-10-10-9-15-8-16-5-7-1zm98 57 1 33 1 4 13-1 108-20 20-4-1-2-45-4-88-6zm-187 0-66 8-68 9-1 2 15 3 116 15h12v-36l-1-1zm24 79-7 8-21 28-14 18-13 17-8 10 1 3 13-10 12-10 28-22 16-13 11-9v-3l-17-17zm151 8-8 10-9 8 6 7 14 11 11 9 14 11 11 9 13 11 13 10 1-2-13-18-14-18-14-19-14-18-8-10zm-90 27-1 2 5 46 10 84 2 14h3l6-50 11-88v-8z" fill="#46EEAA" />
</svg>
